<svg width="32" height="39" viewBox="0 0 32 39" fill="none" xmlns="http://www.w3.org/2000/svg">
<path d="M29.8105 16.6053H17.5989L25.0399 2.68405C25.3001 2.19635 25.1747 1.59241 24.742 1.24855C24.3092 0.904683 23.6925 0.919061 23.2763 1.28272L1.38549 20.3848C1.0305 20.6996 0.906341 21.2006 1.07331 21.6447C1.24028 22.0887 1.66379 22.3839 2.13821 22.3867H14.3498L6.90873 36.316C6.64856 36.8037 6.77393 37.4076 7.20671 37.7515C7.63948 38.0953 8.25612 38.0809 8.6724 37.7173L30.5652 18.6072C30.9182 18.2913 31.0408 17.7909 30.8736 17.3476C30.7065 16.9044 30.2841 16.6095 29.8105 16.6053Z" stroke="#F35890" stroke-width="2" stroke-linecap="round" stroke-linejoin="round"/>
</svg>
