<svg width="38" height="38" viewBox="0 0 38 38" fill="none" xmlns="http://www.w3.org/2000/svg">
<path d="M34.5088 27.474C30.3652 34.3976 22.0161 37.5789 14.3158 35.1682L14.1094 35.1022C13.9661 35.0535 13.8227 35.0076 13.6851 34.956L13.3554 34.8328L13.02 34.7066C12.7936 34.6149 12.57 34.5203 12.3464 34.42L1 37L1.04874 36.9828H1L4.15336 26.8204C3.96989 26.485 3.80363 26.141 3.64309 25.7998V25.7855C-0.053666 17.8004 2.77219 8.31222 10.2354 3.6509C17.6986 -1.01041 27.4646 0.613247 33.0181 7.43866L33.17 7.62786C33.236 7.71386 33.3048 7.79413 33.3707 7.88013L33.3564 7.8658L33.514 8.0722L33.6574 8.27287C33.7491 8.39614 33.8351 8.51941 33.9211 8.64554L34.116 8.93221C34.1791 9.02681 34.2393 9.12141 34.2995 9.21888C34.3597 9.31635 34.4457 9.45108 34.5174 9.56862C34.5575 9.63455 34.5948 9.70622 34.6349 9.77502C35.0401 10.4768 35.3964 11.2057 35.7013 11.9566C35.7055 11.9673 35.7103 11.9779 35.7156 11.9881V12.0053C35.7902 12.1945 35.8647 12.3837 35.9335 12.5786C35.9429 12.6 35.9505 12.622 35.9564 12.6446C36.0252 12.8395 36.094 13.0344 36.1542 13.2179V13.2466C37.67 18.0057 37.0708 23.1865 34.5088 27.474Z" stroke="#F579A6" stroke-width="2" stroke-linecap="round" stroke-linejoin="round"/>
</svg>
